<?xml version="1.0" encoding="utf-8"?>
<!-- Generator: Adobe Illustrator 16.0.0, SVG Export Plug-In . SVG Version: 6.00 Build 0)  -->
<!DOCTYPE svg PUBLIC "-//W3C//DTD SVG 1.1//EN" "http://www.w3.org/Graphics/SVG/1.1/DTD/svg11.dtd">
<svg version="1.1" id="Layer_1" xmlns="http://www.w3.org/2000/svg" xmlns:xlink="http://www.w3.org/1999/xlink" x="0px" y="0px"
	 width="569.322px" height="649.85px" viewBox="0 0 569.322 649.85" enable-background="new 0 0 569.322 649.85"
	 xml:space="preserve">
<path opacity="0.05" enable-background="new    " d="M553.901,178.69c-1.79-3.97-3.976-7.721-6.519-11.198
	c-5.928-9.933-28.622-27.424-58.359-46.931L80.335,529.25c66.655,43.718,168.676,97.546,196.697,99.1
	c2.502,0.305,5.044,0.48,7.629,0.48c3.483,0,6.896-0.298,10.223-0.846c0.731-0.12,1.462-0.245,2.185-0.391
	c0.159-0.031,0.323-0.067,0.485-0.102c0.87-0.183,1.775-0.391,2.721-0.628c0.005-0.001,0.01-0.003,0.015-0.004
	c53.772-13.502,226.592-113.494,246.468-144.499c3.103-4.124,5.705-8.645,7.722-13.473
	C572.138,429.665,572.058,212.169,553.901,178.69z"/>
</svg>
