<?xml version="1.0" encoding="utf-8"?>
<!-- Generator: Adobe Illustrator 16.0.0, SVG Export Plug-In . SVG Version: 6.00 Build 0)  -->
<!DOCTYPE svg PUBLIC "-//W3C//DTD SVG 1.1//EN" "http://www.w3.org/Graphics/SVG/1.1/DTD/svg11.dtd">
<svg version="1.1" id="Layer_1" xmlns="http://www.w3.org/2000/svg" xmlns:xlink="http://www.w3.org/1999/xlink" x="0px" y="0px"
	 width="44px" height="44px" viewBox="0 0 44 44" enable-background="new 0 0 44 44" xml:space="preserve">
<g>
	<path fill="#EF5561" d="M39.984,25.318c1.749-1.755,3.011-3.827,3.615-6.079c2.481-9.298-7.006-18.097-16.107-15.698
		c-1.983,0.521-3.842,1.52-5.489,2.889c-1.651-1.367-3.509-2.366-5.492-2.885C7.347,1.141-2.052,10.028,0.407,19.239
		c0.605,2.253,1.865,4.324,3.617,6.079l16.791,16.774c0.659,0.658,1.725,0.655,2.385,0L39.984,25.318z"/>
	<path fill="#E51C4C" d="M40.426,24.857c1.527-1.653,2.621-3.562,3.174-5.618c2.481-9.298-7.006-18.097-16.107-15.698
		c-1.983,0.521-3.842,1.52-5.489,2.889L40.426,24.857z"/>
</g>
<g>
</g>
<g>
</g>
<g>
</g>
<g>
</g>
<g>
</g>
<g>
</g>
<g>
</g>
<g>
</g>
<g>
</g>
<g>
</g>
<g>
</g>
<g>
</g>
<g>
</g>
<g>
</g>
<g>
</g>
</svg>
